<svg width="30" height="30" viewBox="0 0 30 30" fill="none" xmlns="http://www.w3.org/2000/svg">
<g clip-path="url(#clip0)">
<path d="M12.3423 14.0999C12.9648 13.7868 13.4355 13.438 13.758 13.0611C14.3318 12.3823 14.615 11.4822 14.615 10.3665C14.615 9.28078 14.3318 8.35258 13.7655 7.57439C12.8204 6.30679 11.2209 5.65798 8.95949 5.62423H0V23.9126H8.35381C9.29514 23.9126 10.1671 23.832 10.9734 23.667C11.7797 23.5001 12.4773 23.1944 13.0679 22.7481C13.593 22.36 14.0318 21.8781 14.3806 21.3099C14.9319 20.4511 15.2075 19.4779 15.2075 18.394C15.2075 17.3439 14.9656 16.4495 14.4856 15.7144C13.9999 14.9794 13.2873 14.4412 12.3423 14.0999ZM3.69593 8.80074H7.73126C8.61821 8.80074 9.34952 8.89637 9.92331 9.08576C10.5871 9.36141 10.919 9.92208 10.919 10.7771C10.919 11.5441 10.6659 12.0804 10.1652 12.3823C9.66079 12.6842 9.00636 12.8361 8.2038 12.8361H3.69593V8.80074ZM10.0771 20.4173C9.63079 20.633 9.00261 20.7398 8.19817 20.7398H3.69593V15.8626H8.26005C9.05512 15.8682 9.67392 15.9732 10.1165 16.1701C10.904 16.5264 11.2959 17.1789 11.2959 18.1334C11.2959 19.2585 10.8909 20.016 10.0771 20.4173Z" fill="white"/>
<path d="M27.1166 6.47742H19.1716V8.75386H27.1166V6.47742Z" fill="white"/>
<path d="M29.8768 15.4613C29.7118 14.4018 29.348 13.4699 28.7817 12.6654C28.161 11.7541 27.3735 11.0866 26.4153 10.6646C25.4608 10.2409 24.3864 10.029 23.19 10.0308C21.1817 10.0308 19.5503 10.659 18.2884 11.906C17.0301 13.1567 16.4001 14.955 16.4001 17.2989C16.4001 19.7985 17.0958 21.6043 18.4946 22.7125C19.8879 23.8226 21.4967 24.3758 23.3231 24.3758C25.5339 24.3758 27.2535 23.7176 28.4817 22.405C29.2674 21.5762 29.7118 20.7605 29.8093 19.9598H26.149C25.9371 20.3554 25.6915 20.6648 25.4102 20.8899C24.9001 21.3024 24.2363 21.5087 23.4225 21.5087C22.6481 21.5087 21.9918 21.338 21.4442 20.9986C20.5404 20.4548 20.0679 19.5022 20.0079 18.1465H29.9968C30.0118 16.9783 29.9743 16.0801 29.8768 15.4613ZM20.0979 15.8119C20.2291 14.9325 20.5479 14.2349 21.0542 13.7193C21.5605 13.2055 22.2768 12.9467 23.1938 12.9448C24.0395 12.9448 24.7464 13.1867 25.3221 13.6724C25.8902 14.1618 26.2109 14.8725 26.2765 15.8119H20.0979Z" fill="white"/>
</g>
<defs>
<clipPath id="clip0">
<rect width="30" height="30" fill="white"/>
</clipPath>
</defs>
</svg>
