<svg width="70" height="70" viewBox="0 0 70 70" fill="none" xmlns="http://www.w3.org/2000/svg">
<path d="M21.6329 44.6472L27.962 60.703H25.2929V68.2226H29.3944V60.703H32.0782L25.7345 44.6311L37.0507 31.2453L34.9999 28.8224L21.6329 44.6472Z" fill="#DAD9FF"/>
<path d="M48.9941 44.1202L35.6265 28.2983C35.5495 28.2072 35.4535 28.1339 35.3453 28.0837C35.2371 28.0335 35.1192 28.0074 34.9999 28.0074C34.8806 28.0074 34.7627 28.0335 34.6545 28.0837C34.5463 28.1339 34.4503 28.2072 34.3733 28.2983L21.0056 44.1202C20.91 44.2334 20.8468 44.3703 20.8227 44.5165C20.7986 44.6627 20.8146 44.8127 20.8689 44.9505L26.7709 59.9198H25.2888C25.0712 59.9198 24.8625 60.0063 24.7087 60.1601C24.5549 60.3139 24.4684 60.5226 24.4684 60.7402V68.2597C24.4684 68.4772 24.5549 68.6859 24.7087 68.8397C24.8625 68.9936 25.0712 69.08 25.2888 69.08H44.711C44.9286 69.08 45.1372 68.9936 45.2911 68.8397C45.4449 68.6859 45.5313 68.4772 45.5313 68.2597V60.7402C45.5313 60.5226 45.4449 60.3139 45.2911 60.1601C45.1372 60.0063 44.9286 59.9198 44.711 59.9198H43.6506L49.138 44.9318C49.1877 44.7959 49.2006 44.6492 49.1754 44.5066C49.1501 44.3641 49.0876 44.2308 48.9941 44.1202ZM34.9999 45.7446C35.3516 45.7446 35.6954 45.8489 35.9879 46.0443C36.2803 46.2397 36.5083 46.5174 36.6429 46.8423C36.7775 47.1673 36.8128 47.5249 36.7442 47.8698C36.6756 48.2148 36.5063 48.5317 36.2576 48.7804C36.0089 49.0292 35.692 49.1986 35.3471 49.2672C35.0021 49.3359 34.6446 49.3007 34.3196 49.1662C33.9946 49.0317 33.7168 48.8038 33.5214 48.5114C33.3259 48.219 33.2215 47.8752 33.2214 47.5234C33.2219 47.0519 33.4094 46.5997 33.7428 46.2662C34.0762 45.9327 34.5283 45.7451 34.9999 45.7446ZM43.8907 67.4394H26.1091V61.5605H43.8907V67.4394ZM41.9036 59.9198H28.5346L22.575 44.8048L34.1796 31.0697V44.2042C33.3687 44.4046 32.6593 44.8948 32.1851 45.5824C31.711 46.2701 31.5049 47.1074 31.6059 47.9366C31.7068 48.7657 32.1078 49.5292 32.733 50.0829C33.3583 50.6367 34.1646 50.9424 34.9999 50.9424C35.8351 50.9424 36.6415 50.6367 37.2667 50.0829C37.892 49.5292 38.293 48.7657 38.3939 47.9366C38.4948 47.1074 38.2888 46.2701 37.8146 45.5824C37.3405 44.8948 36.631 44.4046 35.8202 44.2042V31.0697L47.4335 44.8152L41.9036 59.9198Z" fill="#4642FF"/>
<path d="M25.9276 46.4373L27.4535 45.8351L28.0766 47.4142L26.5507 48.0163L25.9276 46.4373Z" fill="#4642FF"/>
<path d="M27.0645 49.312L28.5902 48.7099L32.1811 57.8093L30.6553 58.4114L27.0645 49.312Z" fill="#4642FF"/>
<path d="M59.3906 1.92303C58.3589 1.92441 57.3597 2.28345 56.5631 2.93898C55.7664 3.5945 55.2218 4.50596 55.0218 5.51805H40.3664V1.74023C40.3664 1.52267 40.28 1.31402 40.1261 1.16019C39.9723 1.00635 39.7637 0.919922 39.5461 0.919922H30.3498C30.1323 0.919922 29.9236 1.00635 29.7698 1.16019C29.616 1.31402 29.5295 1.52267 29.5295 1.74023V5.51805H14.9787C14.7656 4.42868 14.1535 3.45813 13.2622 2.79652C12.3709 2.13492 11.2647 1.82994 10.1603 1.94135C9.05593 2.05275 8.03292 2.5725 7.29172 3.39878C6.55052 4.22506 6.14455 5.29831 6.15334 6.40828C6.16213 7.51825 6.58504 8.58494 7.33923 9.39938C8.09341 10.2138 9.12452 10.7173 10.2305 10.8112C11.3366 10.9051 12.4378 10.5827 13.3185 9.90703C14.1992 9.2314 14.7959 8.25127 14.9917 7.15867H28.0612C26.265 8.37723 24.7937 10.0162 23.7753 11.9329C22.757 13.8497 22.2223 15.9862 22.2178 18.1567V22.1718H18.7087C18.4911 22.1718 18.2824 22.2582 18.1286 22.412C17.9748 22.5659 17.8883 22.7745 17.8883 22.9921V32.1882C17.8883 32.4057 17.9748 32.6144 18.1286 32.7682C18.2824 32.9221 18.4911 33.0085 18.7087 33.0085H27.9042C28.1218 33.0085 28.3304 32.9221 28.4843 32.7682C28.6381 32.6144 28.7245 32.4057 28.7245 32.1882V22.9921C28.7245 22.7745 28.6381 22.5659 28.4843 22.412C28.3304 22.2582 28.1218 22.1718 27.9042 22.1718H23.8573V18.1562C23.8612 16.1432 24.3855 14.1654 25.3791 12.4147C26.3728 10.6641 27.8021 9.20002 29.5284 8.16465V10.9359C29.5284 11.1535 29.6149 11.3621 29.7687 11.516C29.9225 11.6698 30.1312 11.7562 30.3488 11.7562H39.545C39.7626 11.7562 39.9712 11.6698 40.1251 11.516C40.2789 11.3621 40.3653 11.1535 40.3653 10.9359V8.16506C42.0919 9.20022 43.5214 10.6642 44.5151 12.415C45.5088 14.1657 46.0328 16.1437 46.0364 18.1567V22.1718H41.9895C41.772 22.1718 41.5633 22.2582 41.4095 22.412C41.2556 22.5659 41.1692 22.7745 41.1692 22.9921V32.1882C41.1692 32.4057 41.2556 32.6144 41.4095 32.7682C41.5633 32.9221 41.772 33.0085 41.9895 33.0085H51.1874C51.405 33.0085 51.6136 32.9221 51.7675 32.7682C51.9213 32.6144 52.0077 32.4057 52.0077 32.1882V22.9921C52.0077 22.7745 51.9213 22.5659 51.7675 22.412C51.6136 22.2582 51.405 22.1718 51.1874 22.1718H47.6781V18.1562C47.674 15.9856 47.1396 13.849 46.1212 11.9321C45.1028 10.0153 43.6313 8.37643 41.8349 7.15812H55.0082C55.1572 7.99181 55.541 8.76568 56.1145 9.38888C56.688 10.0121 57.4273 10.4588 58.2458 10.6765C59.0642 10.8943 59.9278 10.874 60.7351 10.6181C61.5424 10.3623 62.26 9.88143 62.8037 9.23202C63.3473 8.58262 63.6944 7.79162 63.8042 6.95186C63.914 6.1121 63.782 5.25844 63.4237 4.49107C63.0654 3.72371 62.4956 3.07449 61.7812 2.61961C61.0668 2.16474 60.2375 1.92309 59.3906 1.92303ZM10.61 9.18648C10.0539 9.18646 9.51037 9.02154 9.04804 8.7126C8.58572 8.40365 8.22538 7.96455 8.01261 7.45081C7.79983 6.93708 7.74418 6.37179 7.85267 5.82642C7.96117 5.28106 8.22895 4.78011 8.62215 4.38693C9.01535 3.99375 9.51631 3.726 10.0617 3.61753C10.607 3.50906 11.1723 3.56474 11.6861 3.77754C12.1998 3.99034 12.6389 4.35069 12.9478 4.81304C13.2567 5.27538 13.4216 5.81895 13.4216 6.375C13.4208 7.12042 13.1243 7.83507 12.5972 8.36215C12.0701 8.88923 11.3554 9.18569 10.61 9.18648ZM27.0839 31.3679H19.529V23.8124H27.0839V31.3679ZM50.3671 31.3679H42.8115V23.8124H50.3671V31.3679ZM38.7258 10.1162H31.1702V2.56055H38.7258V10.1162ZM59.3899 9.18648C58.8338 9.18651 58.2902 9.02164 57.8279 8.71273C57.3655 8.40382 57.0051 7.96473 56.7923 7.451C56.5795 6.93727 56.5238 6.37197 56.6323 5.82659C56.7407 5.28121 57.0085 4.78024 57.4017 4.38703C57.7949 3.99382 58.2958 3.72604 58.8412 3.61755C59.3866 3.50905 59.9519 3.56472 60.4656 3.77751C60.9794 3.9903 61.4185 4.35066 61.7274 4.81301C62.0363 5.27536 62.2012 5.81894 62.2012 6.375C62.2004 7.12024 61.904 7.83473 61.3771 8.36177C60.8502 8.88882 60.1358 9.1854 59.3906 9.18648H59.3899Z" fill="#FF42A7"/>
</svg>
