<svg width="70" height="70" viewBox="0 0 70 70" fill="none" xmlns="http://www.w3.org/2000/svg">
<path d="M5.05859 20.6445H9.16016V47.168H5.05859V20.6445Z" fill="#DAD9FF"/>
<path d="M20.918 7.65625H25.0195V20.6445H20.918V7.65625Z" fill="#DAD9FF"/>
<path d="M49.053 6.79358H20.947C20.7294 6.79358 20.5207 6.88001 20.3669 7.03384C20.2131 7.18768 20.1266 7.39633 20.1266 7.61389V13.6295H12.7438C12.5263 13.6295 12.3176 13.7159 12.1638 13.8698C12.0099 14.0236 11.9235 14.2323 11.9235 14.4498V19.8177H5.06543C4.84787 19.8177 4.63922 19.9041 4.48538 20.0579C4.33154 20.2118 4.24512 20.4204 4.24512 20.638V47.1751C4.24512 47.3927 4.33154 47.6013 4.48538 47.7551C4.63922 47.909 4.84787 47.9954 5.06543 47.9954H22.7306V46.3548H5.88574V21.4583H64.1143V46.3548H47.2042V47.9954H64.9346C65.1521 47.9954 65.3608 47.909 65.5146 47.7551C65.6684 47.6013 65.7549 47.3927 65.7549 47.1751V20.638C65.7549 20.4204 65.6684 20.2118 65.5146 20.0579C65.3608 19.9041 65.1521 19.8177 64.9346 19.8177H58.0765V14.4498C58.0765 14.2323 57.9901 14.0236 57.8362 13.8698C57.6824 13.7159 57.4737 13.6295 57.2562 13.6295H49.8734V7.61389C49.8734 7.39633 49.7869 7.18768 49.6331 7.03384C49.4793 6.88001 49.2706 6.79358 49.053 6.79358ZM48.2327 8.4342V19.8177H21.7673V8.4342H48.2327ZM13.5641 15.2701H20.1266V19.8177H13.5641V15.2701ZM56.4359 15.2701V19.8177H49.8734V15.2701H56.4359Z" fill="#4642FF"/>
<path d="M53.6279 33.4961V39.0756H47.3047V40.7162H54.4482C54.6658 40.7162 54.8745 40.6298 55.0283 40.4759C55.1821 40.3221 55.2686 40.1135 55.2686 39.8959V32.6758C55.2686 32.4582 55.1821 32.2496 55.0283 32.0957C54.8745 31.9419 54.6658 31.8555 54.4482 31.8555H15.5518C15.3342 31.8555 15.1255 31.9419 14.9717 32.0957C14.8179 32.2496 14.7314 32.4582 14.7314 32.6758V39.8959C14.7314 40.1135 14.8179 40.3221 14.9717 40.4759C15.1255 40.6298 15.3342 40.7162 15.5518 40.7162H22.832V39.0756H16.3721V33.4961H53.6279Z" fill="#4642FF"/>
<path d="M19.853 26.7969C19.853 26.3757 19.7281 25.9639 19.4941 25.6136C19.26 25.2633 18.9274 24.9903 18.5382 24.8291C18.149 24.6679 17.7207 24.6257 17.3075 24.7079C16.8944 24.7901 16.5149 24.993 16.217 25.2908C15.9191 25.5887 15.7163 25.9682 15.6341 26.3814C15.5519 26.7946 15.5941 27.2228 15.7553 27.612C15.9165 28.0012 16.1895 28.3339 16.5397 28.5679C16.89 28.802 17.3018 28.9269 17.7231 28.9269C18.2877 28.9261 18.8291 28.7015 19.2283 28.3022C19.6276 27.9029 19.8523 27.3616 19.853 26.7969ZM17.2338 26.7969C17.2338 26.7002 17.2625 26.6056 17.3162 26.5251C17.37 26.4446 17.4464 26.3819 17.5358 26.3449C17.6252 26.3078 17.7236 26.2981 17.8185 26.317C17.9135 26.3359 18.0006 26.3825 18.0691 26.4509C18.1375 26.5194 18.1841 26.6066 18.203 26.7015C18.2219 26.7964 18.2122 26.8948 18.1751 26.9842C18.1381 27.0736 18.0754 27.15 17.9949 27.2038C17.9145 27.2576 17.8199 27.2863 17.7231 27.2863C17.5933 27.2861 17.4689 27.2346 17.3772 27.1428C17.2855 27.0511 17.2339 26.9267 17.2338 26.7969Z" fill="#4642FF"/>
<path d="M24.6885 26.7969C24.6885 26.3757 24.5636 25.9639 24.3296 25.6136C24.0955 25.2633 23.7629 24.9903 23.3737 24.8291C22.9845 24.6679 22.5562 24.6257 22.1431 24.7079C21.7299 24.7901 21.3504 24.993 21.0525 25.2908C20.7546 25.5887 20.5518 25.9682 20.4696 26.3814C20.3874 26.7946 20.4296 27.2228 20.5908 27.612C20.752 28.0012 21.025 28.3339 21.3753 28.5679C21.7255 28.802 22.1373 28.9269 22.5586 28.9269C23.1233 28.9261 23.6646 28.7015 24.0639 28.3022C24.4631 27.9029 24.6878 27.3616 24.6885 26.7969ZM22.0693 26.7969C22.0693 26.7002 22.098 26.6056 22.1517 26.5251C22.2055 26.4446 22.2819 26.3819 22.3713 26.3449C22.4608 26.3078 22.5591 26.2981 22.6541 26.317C22.749 26.3359 22.8362 26.3825 22.9046 26.4509C22.973 26.5194 23.0196 26.6066 23.0385 26.7015C23.0574 26.7964 23.0477 26.8948 23.0107 26.9842C22.9736 27.0736 22.9109 27.15 22.8304 27.2038C22.75 27.2576 22.6554 27.2863 22.5586 27.2863C22.4289 27.2861 22.3045 27.2346 22.2127 27.1428C22.121 27.0511 22.0694 26.9267 22.0693 26.7969Z" fill="#4642FF"/>
<path d="M29.5241 26.7969C29.5241 26.3757 29.3992 25.9639 29.1652 25.6136C28.9311 25.2633 28.5985 24.9903 28.2093 24.8291C27.8201 24.6679 27.3918 24.6257 26.9786 24.7079C26.5655 24.7901 26.1859 24.993 25.8881 25.2908C25.5902 25.5887 25.3873 25.9682 25.3051 26.3814C25.223 26.7946 25.2651 27.2228 25.4264 27.612C25.5876 28.0012 25.8606 28.3339 26.2108 28.5679C26.5611 28.802 26.9729 28.9269 27.3942 28.9269C27.9588 28.9261 28.5002 28.7015 28.8994 28.3022C29.2987 27.9029 29.5234 27.3616 29.5241 26.7969ZM26.9049 26.7969C26.9049 26.7002 26.9335 26.6056 26.9873 26.5251C27.0411 26.4446 27.1175 26.3819 27.2069 26.3449C27.2963 26.3078 27.3947 26.2981 27.4896 26.317C27.5845 26.3359 27.6717 26.3825 27.7402 26.4509C27.8086 26.5194 27.8552 26.6066 27.8741 26.7015C27.893 26.7964 27.8833 26.8948 27.8462 26.9842C27.8092 27.0736 27.7465 27.15 27.666 27.2038C27.5856 27.2576 27.4909 27.2863 27.3942 27.2863C27.2644 27.2861 27.1401 27.2345 27.0483 27.1428C26.9566 27.051 26.905 26.9267 26.9049 26.7969Z" fill="#4642FF"/>
<path d="M8.23108 23.8195H9.8717V25.8399H8.23108V23.8195Z" fill="#4642FF"/>
<path d="M8.23108 27.4563H9.8717V37.7344H8.23108V27.4563Z" fill="#4642FF"/>
<path d="M46.4223 61.5658H29.0284V57.6146C29.0284 57.3971 28.942 57.1884 28.7881 57.0346C28.6343 56.8808 28.4257 56.7943 28.2081 56.7943H23.5777V33.4961H21.9371V57.6341C21.9371 57.7513 21.9622 57.8671 22.0108 57.9738C22.0593 58.0805 22.1302 58.1756 22.2186 58.2526L27.65 62.9854C27.7782 63.0971 27.938 63.1662 28.1072 63.1832L28.2986 63.2023C28.3259 63.2051 28.3533 63.2064 28.3806 63.2064H47.2427C47.4602 63.2064 47.6689 63.12 47.8227 62.9662C47.9765 62.8123 48.063 62.6037 48.063 62.3861V33.4961H46.4223V61.5658ZM27.3878 60.5814L24.9255 58.4358H27.3878V60.5814Z" fill="#FF42A7"/>
<path d="M26.9336 37.7344H32.8125V39.375H26.9336V37.7344Z" fill="#FF42A7"/>
<path d="M26.9336 41.5625H43.0664V43.2031H26.9336V41.5625Z" fill="#FF42A7"/>
<path d="M26.9336 45.3906H43.0664V47.0312H26.9336V45.3906Z" fill="#FF42A7"/>
<path d="M26.9336 49.082H43.0664V50.7227H26.9336V49.082Z" fill="#FF42A7"/>
<path d="M26.9336 52.9102H43.0664V54.5508H26.9336V52.9102Z" fill="#FF42A7"/>
</svg>
