<svg width="70" height="70" viewBox="0 0 70 70" fill="none" xmlns="http://www.w3.org/2000/svg">
<path d="M2.46094 43.3398V52.6367H6.5625V43.3398V2.73438H2.46094V43.3398Z" fill="#DAD9FF"/>
<path d="M67.5716 1.89331H2.42841C2.21085 1.89331 2.0022 1.97974 1.84836 2.13357C1.69452 2.28741 1.60809 2.49606 1.60809 2.71362V52.6625C1.60809 52.88 1.69452 53.0887 1.84836 53.2425C2.0022 53.3964 2.21085 53.4828 2.42841 53.4828H26.6488L25.0765 63.4062H21.7209C21.5034 63.4062 21.2947 63.4927 21.1409 63.6465C20.987 63.8003 20.9006 64.009 20.9006 64.2265V67.2865C20.9006 67.504 20.987 67.7127 21.1409 67.8665C21.2947 68.0203 21.5034 68.1068 21.7209 68.1068H48.2791C48.4966 68.1068 48.7053 68.0203 48.8591 67.8665C49.013 67.7127 49.0994 67.504 49.0994 67.2865V64.2265C49.0994 64.009 49.013 63.8003 48.8591 63.6465C48.7053 63.4927 48.4966 63.4062 48.2791 63.4062H44.9241L43.3519 53.4828H67.5716C67.7892 53.4828 67.9978 53.3964 68.1516 53.2425C68.3055 53.0887 68.3919 52.88 68.3919 52.6625V2.71362C68.3919 2.49606 68.3055 2.28741 68.1516 2.13357C67.9978 1.97974 67.7892 1.89331 67.5716 1.89331ZM66.7513 3.53394V42.5512H3.24872V3.53394H66.7513ZM47.4588 66.4656H22.5412V65.0469H47.4588V66.4656ZM43.2631 63.4057H26.7369L28.3099 53.4822H41.6901L43.2631 63.4057ZM3.24872 51.8421V44.1918H66.7513V51.8421H3.24872Z" fill="#4642FF"/>
<path d="M35.0002 45.2085C34.4742 45.2085 33.96 45.3645 33.5226 45.6567C33.0853 45.9489 32.7444 46.3643 32.5431 46.8502C32.3419 47.3362 32.2892 47.8709 32.3918 48.3868C32.4944 48.9026 32.7477 49.3765 33.1196 49.7484C33.4916 50.1204 33.9654 50.3737 34.4813 50.4763C34.9972 50.5789 35.5319 50.5262 36.0179 50.3249C36.5038 50.1237 36.9192 49.7828 37.2114 49.3454C37.5036 48.9081 37.6596 48.3939 37.6596 47.8679C37.6588 47.1629 37.3784 46.4869 36.8798 45.9883C36.3812 45.4897 35.7053 45.2093 35.0002 45.2085ZM35.0002 48.8862C34.7987 48.8862 34.6017 48.8265 34.4341 48.7145C34.2666 48.6026 34.136 48.4434 34.0589 48.2573C33.9818 48.0711 33.9616 47.8663 34.0009 47.6686C34.0402 47.471 34.1373 47.2895 34.2797 47.147C34.4222 47.0045 34.6038 46.9075 34.8014 46.8681C34.999 46.8288 35.2039 46.849 35.39 46.9261C35.5762 47.0032 35.7353 47.1338 35.8473 47.3014C35.9592 47.4689 36.019 47.6659 36.019 47.8674C36.0188 48.1376 35.9115 48.3967 35.7205 48.5878C35.5294 48.779 35.2704 48.8865 35.0002 48.8868V48.8862Z" fill="#4642FF"/>
<path d="M62.7171 6.7478H7.28281C7.06525 6.7478 6.8566 6.83423 6.70276 6.98807C6.54892 7.1419 6.46249 7.35055 6.46249 7.56812V38.411C6.46249 38.6286 6.54892 38.8373 6.70276 38.9911C6.8566 39.1449 7.06525 39.2314 7.28281 39.2314H62.7171C62.9346 39.2314 63.1433 39.1449 63.2971 38.9911C63.451 38.8373 63.5374 38.6286 63.5374 38.411V7.56812C63.5374 7.35055 63.451 7.1419 63.2971 6.98807C63.1433 6.83423 62.9346 6.7478 62.7171 6.7478ZM61.8968 37.5907H8.10312V8.38843H61.8968V37.5907Z" fill="#FF42A7"/>
<path d="M10.9656 10.9678H12.6063V12.9882H10.9656V10.9678Z" fill="#FF42A7"/>
<path d="M10.9656 14.6047H12.6063V27.6172H10.9656V14.6047Z" fill="#FF42A7"/>
</svg>
