<svg width="70" height="70" viewBox="0 0 70 70" fill="none" xmlns="http://www.w3.org/2000/svg">
<path d="M15.3125 1.91406H19.4141V68.0859H15.3125V1.91406Z" fill="#DAD9FF"/>
<path d="M54.7148 1.09375H15.2851C15.0675 1.09375 14.8589 1.18018 14.705 1.33401C14.5512 1.48785 14.4648 1.6965 14.4648 1.91406V68.0859C14.4648 68.3035 14.5512 68.5121 14.705 68.666C14.8589 68.8198 15.0675 68.9062 15.2851 68.9062H54.7148C54.9323 68.9062 55.141 68.8198 55.2948 68.666C55.4487 68.5121 55.5351 68.3035 55.5351 68.0859V1.91406C55.5351 1.6965 55.4487 1.48785 55.2948 1.33401C55.141 1.18018 54.9323 1.09375 54.7148 1.09375ZM53.8945 67.2656H16.1054V2.73438H53.8945V67.2656Z" fill="#4642FF"/>
<path d="M20.4804 58.3258H49.5194C49.737 58.3258 49.9456 58.2394 50.0995 58.0855C50.2533 57.9317 50.3397 57.723 50.3397 57.5055V9.21313C50.3397 8.99557 50.2533 8.78692 50.0995 8.63309C49.9456 8.47925 49.737 8.39282 49.5194 8.39282H20.4804C20.2628 8.39282 20.0542 8.47925 19.9004 8.63309C19.7465 8.78692 19.6601 8.99557 19.6601 9.21313V57.5055C19.6601 57.723 19.7465 57.9317 19.9004 58.0855C20.0542 58.2394 20.2628 58.3258 20.4804 58.3258ZM21.3007 10.0334H48.6991V56.6852H21.3007V10.0334Z" fill="#4642FF"/>
<path d="M32.4023 4.64844H37.5977V6.28906H32.4023V4.64844Z" fill="#4642FF"/>
<path d="M35 59.6094C34.3375 59.6094 33.6898 59.8058 33.139 60.1739C32.5882 60.5419 32.1588 61.0651 31.9053 61.6772C31.6518 62.2892 31.5854 62.9627 31.7147 63.6125C31.8439 64.2622 32.163 64.8591 32.6314 65.3275C33.0999 65.796 33.6967 66.115 34.3465 66.2442C34.9962 66.3735 35.6697 66.3072 36.2818 66.0536C36.8939 65.8001 37.417 65.3708 37.7851 64.8199C38.1531 64.2691 38.3496 63.6215 38.3496 62.959C38.3486 62.0709 37.9953 61.2195 37.3674 60.5916C36.7394 59.9636 35.888 59.6104 35 59.6094ZM35 64.668C34.6619 64.668 34.3315 64.5677 34.0505 64.38C33.7694 64.1922 33.5504 63.9253 33.4211 63.613C33.2917 63.3007 33.2579 62.9571 33.3238 62.6256C33.3897 62.2941 33.5525 61.9896 33.7915 61.7506C34.0305 61.5115 34.335 61.3488 34.6665 61.2828C34.9981 61.2169 35.3417 61.2507 35.654 61.3801C35.9662 61.5094 36.2331 61.7285 36.4209 62.0095C36.6087 62.2906 36.7089 62.621 36.7089 62.959C36.7084 63.4121 36.5282 63.8465 36.2078 64.1669C35.8874 64.4873 35.4531 64.6675 35 64.668Z" fill="#4642FF"/>
<path d="M22.8599 12.8818H24.5005V14.9023H22.8599V12.8818Z" fill="#4642FF"/>
<path d="M22.8599 16.5188H24.5005V37.7344H22.8599V16.5188Z" fill="#4642FF"/>
<path d="M25.7715 20.2344H32.7441V21.875H25.7715V20.2344Z" fill="#FF42A7"/>
<path d="M25.7715 25.293H44.2285V26.9336H25.7715V25.293Z" fill="#FF42A7"/>
<path d="M25.7715 30.2148H44.2285V31.8555H25.7715V30.2148Z" fill="#FF42A7"/>
<path d="M25.7715 35.2734H44.2285V36.9141H25.7715V35.2734Z" fill="#FF42A7"/>
<path d="M25.7715 40.332H44.2285V41.9727H25.7715V40.332Z" fill="#FF42A7"/>
<path d="M25.7715 45.2539H44.2285V46.8945H25.7715V45.2539Z" fill="#FF42A7"/>
<path d="M25.7715 50.3125H44.2285V51.9531H25.7715V50.3125Z" fill="#FF42A7"/>
</svg>
