<svg width="30" height="30" viewBox="0 0 30 30" fill="none" xmlns="http://www.w3.org/2000/svg">
<g clip-path="url(#clip0)">
<path d="M15.005 7.2975C10.7513 7.2975 7.30753 10.745 7.30753 14.995C7.30753 19.2487 10.755 22.6925 15.005 22.6925C19.2588 22.6925 22.7025 19.245 22.7025 14.995C22.7025 10.7412 19.255 7.2975 15.005 7.2975ZM15.005 19.9912C12.2438 19.9912 10.0088 17.755 10.0088 14.995C10.0088 12.235 12.245 9.99875 15.005 9.99875C17.765 9.99875 20.0013 12.235 20.0013 14.995C20.0025 17.755 17.7663 19.9912 15.005 19.9912Z" fill="white"/>
<path d="M21.185 0.0949963C18.425 -0.0337538 11.5888 -0.0275037 8.82626 0.0949963C6.39876 0.208746 4.25751 0.794996 2.53126 2.52125C-0.353741 5.40625 0.0150094 9.29375 0.0150094 14.995C0.0150094 20.83 -0.309991 24.6275 2.53126 27.4688C5.42751 30.3638 9.37126 29.985 15.005 29.985C20.785 29.985 22.78 29.9888 24.8238 29.1975C27.6025 28.1188 29.7 25.635 29.905 21.1738C30.035 18.4125 30.0275 11.5775 29.905 8.815C29.6575 3.54875 26.8313 0.354996 21.185 0.0949963ZM25.5538 25.56C23.6625 27.4513 21.0388 27.2825 14.9688 27.2825C8.71876 27.2825 6.21251 27.375 4.38376 25.5413C2.27751 23.445 2.65876 20.0788 2.65876 14.975C2.65876 8.06875 1.95001 3.095 8.88126 2.74C10.4738 2.68375 10.9425 2.665 14.9513 2.665L15.0075 2.7025C21.6688 2.7025 26.895 2.005 27.2088 8.935C27.28 10.5163 27.2963 10.9913 27.2963 14.9938C27.295 21.1713 27.4125 23.6925 25.5538 25.56Z" fill="white"/>
<path d="M23.0075 8.7925C24.0009 8.7925 24.8062 7.98717 24.8062 6.99375C24.8062 6.00033 24.0009 5.195 23.0075 5.195C22.0141 5.195 21.2087 6.00033 21.2087 6.99375C21.2087 7.98717 22.0141 8.7925 23.0075 8.7925Z" fill="white"/>
</g>
<defs>
<clipPath id="clip0">
<rect width="30" height="30" fill="white"/>
</clipPath>
</defs>
</svg>
