<svg width="30" height="30" viewBox="0 0 30 30" fill="none" xmlns="http://www.w3.org/2000/svg">
<g clip-path="url(#clip0)">
<path d="M24.1507 28.4171C23.9163 28.4171 23.6836 28.3478 23.4839 28.2124L15.9407 23.0957L11.895 26.0068C11.5777 26.235 11.1687 26.2925 10.8003 26.1607C10.4323 26.0287 10.1528 25.7239 10.0531 25.3459L8.02167 17.6474L0.763172 14.872C0.306221 14.6972 0.00316954 14.26 -0.000155475 13.7708C-0.00348049 13.2815 0.293554 12.8402 0.748289 12.6593L28.3478 1.67723C28.473 1.62403 28.6056 1.59331 28.7392 1.58508C28.787 1.58223 28.835 1.58223 28.8826 1.58492C29.1594 1.60139 29.4313 1.71412 29.6434 1.92217C29.6654 1.94371 29.6863 1.96572 29.7061 1.98867C29.8819 2.18944 29.9785 2.43423 29.9967 2.6836C30.0011 2.7463 30.0008 2.80979 29.9953 2.87329C29.9915 2.91857 29.985 2.96369 29.9758 3.0085L25.3171 27.4519C25.2422 27.8446 24.975 28.1733 24.6057 28.3264C24.4593 28.3872 24.3046 28.4171 24.1507 28.4171ZM16.6031 20.6751L23.3223 25.2327L26.9472 6.21302L13.855 18.811L16.5714 20.6537C16.5823 20.6605 16.5928 20.6678 16.6031 20.6751ZM11.0096 19.6616L11.9092 23.0705L13.8476 21.6758L11.3095 19.954C11.1915 19.8742 11.0905 19.7748 11.0096 19.6616ZM4.45473 13.7405L9.43876 15.6461C9.7958 15.7826 10.0653 16.0828 10.1628 16.4523L10.7949 18.8477C10.8239 18.5715 10.9491 18.3115 11.1526 18.1156L23.6275 6.11169L4.45473 13.7405Z" fill="white"/>
</g>
<defs>
<clipPath id="clip0">
<rect width="30" height="30" fill="white"/>
</clipPath>
</defs>
</svg>
